<svg width="20" height="20" viewBox="0 0 20 20" fill="none" xmlns="http://www.w3.org/2000/svg">
<g clip-path="url(#clip0_258_461)">
<path d="M8.63164 0.585389L6.79057 0.105365C6.39736 0.000598043 5.98734 -0.0256406 5.58398 0.0281492C5.18061 0.0819391 4.7918 0.214703 4.43978 0.41885C4.08775 0.622997 3.77941 0.894524 3.53239 1.21791C3.28537 1.54129 3.10451 1.91019 3.00015 2.30352L2.54061 4.03922C4.05603 2.15309 6.23505 0.91751 8.63164 0.585389Z" fill="black"/>
<path d="M0.556124 11.5117L0.105371 13.2123C-0.105334 14.006 0.00787752 14.851 0.420104 15.5613C0.83233 16.2715 1.50981 16.789 2.30353 16.9998L4.05971 17.4681C2.1845 15.9938 0.933563 13.8671 0.556124 11.5117Z" fill="black"/>
<path d="M17.6965 3.00025L15.7266 2.47632C16.722 3.24198 17.5554 4.19771 18.1784 5.28804C18.8015 6.37836 19.2018 7.58158 19.3561 8.82785L19.8976 6.77897C20.1055 5.98605 19.9906 5.14302 19.578 4.43469C19.1654 3.72636 18.4888 3.21052 17.6965 3.00025Z" fill="black"/>
<path d="M11.3245 19.3943L13.2124 19.9036C14.0061 20.1143 14.851 20.0011 15.5613 19.5888C16.2716 19.1766 16.789 18.4991 16.9999 17.7054L17.5326 15.7034C16.0306 17.7039 13.7994 19.0304 11.3245 19.3943Z" fill="black"/>
<path d="M10.0015 1.32886C8.28605 1.32828 6.60901 1.83643 5.18242 2.78903C3.75583 3.74164 2.64378 5.09592 1.98692 6.68058C1.33006 8.26524 1.1579 10.0091 1.4922 11.6916C1.82651 13.3741 2.65226 14.9197 3.86503 16.1329C5.0778 17.3461 6.62311 18.1724 8.30551 18.5072C9.98792 18.8421 11.7318 18.6705 13.3167 18.0142C14.9016 17.3579 16.2563 16.2463 17.2093 14.82C18.1624 13.3938 18.6712 11.7169 18.6712 10.0015C18.6712 7.70186 17.7578 5.49639 16.132 3.87004C14.5062 2.2437 12.3011 1.32963 10.0015 1.32886ZM5.09 5.65492C5.18273 5.1741 5.41595 4.73156 5.76016 4.38327C6.10436 4.03497 6.54411 3.79655 7.02381 3.69814C7.5035 3.59974 8.0016 3.64577 8.45514 3.83042C8.90868 4.01507 9.29728 4.33004 9.57183 4.73552C9.84638 5.141 9.99454 5.61878 9.99759 6.10846C10.0006 6.59813 9.85842 7.07771 9.58893 7.48658C9.31945 7.89544 8.93478 8.21522 8.48358 8.40549C8.03237 8.59576 7.53488 8.64798 7.054 8.55555C6.73454 8.49414 6.4303 8.37039 6.15869 8.19137C5.88707 8.01234 5.65339 7.78155 5.471 7.51217C5.28861 7.2428 5.16108 6.94013 5.09571 6.62146C5.03034 6.30278 5.0284 5.97435 5.09 5.65492ZM8.6931 13.148C8.59972 13.6286 8.36593 14.0708 8.02129 14.4186C7.67665 14.7664 7.23664 15.0042 6.75686 15.102C6.27709 15.1998 5.7791 15.1532 5.32583 14.968C4.87256 14.7828 4.48437 14.4674 4.21032 14.0616C3.93627 13.6559 3.78866 13.178 3.78616 12.6883C3.78366 12.1987 3.92637 11.7193 4.19626 11.3108C4.46614 10.9022 4.85109 10.5829 5.30244 10.3931C5.75379 10.2033 6.25129 10.1515 6.73203 10.2444C7.05153 10.3061 7.35573 10.4302 7.62724 10.6096C7.89875 10.789 8.13224 11.0201 8.31437 11.2897C8.4965 11.5594 8.62369 11.8623 8.68868 12.1812C8.75367 12.5 8.75517 12.8285 8.6931 13.148ZM9.74389 11.143C9.53046 11.1017 9.33405 10.9981 9.17941 10.8454C9.02478 10.6926 8.91886 10.4974 8.875 10.2845C8.83115 10.0716 8.85133 9.85047 8.933 9.64902C9.01467 9.44756 9.15417 9.2748 9.3339 9.15253C9.51364 9.03027 9.72555 8.96396 9.94292 8.96199C10.1603 8.96002 10.3734 9.02246 10.5553 9.14145C10.7372 9.26043 10.8798 9.43063 10.9652 9.63057C11.0505 9.8305 11.0747 10.0512 11.0347 10.2649C11.008 10.4075 10.9534 10.5435 10.874 10.6649C10.7945 10.7863 10.6919 10.8908 10.5719 10.9724C10.452 11.054 10.317 11.1111 10.1749 11.1404C10.0328 11.1697 9.88634 11.1706 9.74389 11.143ZM14.91 14.3422C14.8173 14.823 14.584 15.2655 14.2398 15.6138C13.8956 15.9621 13.4559 16.2006 12.9762 16.299C12.4965 16.3974 11.9984 16.3513 11.5449 16.1667C11.0913 15.982 10.7027 15.6671 10.4282 15.2616C10.1536 14.8561 10.0055 14.3783 10.0024 13.8886C9.99937 13.399 10.1416 12.9194 10.4111 12.5105C10.6805 12.1017 11.0652 11.7819 11.5164 11.5916C11.9676 11.4013 12.4651 11.3491 12.946 11.4415C13.2655 11.503 13.5697 11.6267 13.8413 11.8057C14.1129 11.9848 14.3466 12.2156 14.529 12.4849C14.7114 12.7543 14.8389 13.057 14.9043 13.3756C14.9697 13.6943 14.9716 14.0228 14.91 14.3422ZM13.2709 9.75268C12.7901 9.65995 12.3475 9.42674 11.9992 9.08253C11.6509 8.73832 11.4125 8.29857 11.3141 7.81888C11.2157 7.33918 11.2617 6.84108 11.4464 6.38755C11.631 5.93401 11.946 5.5454 12.3515 5.27085C12.757 4.99631 13.2347 4.84814 13.7244 4.8451C14.2141 4.84206 14.6937 4.98427 15.1025 5.25375C15.5114 5.52324 15.8312 5.9079 16.0215 6.35911C16.2117 6.81031 16.264 7.3078 16.1715 7.78868C16.1104 8.10841 15.9869 8.41296 15.8081 8.68491C15.6292 8.95685 15.3984 9.19086 15.129 9.37355C14.8596 9.55624 14.5568 9.68401 14.238 9.74957C13.9192 9.81513 13.5905 9.81718 13.2709 9.75561V9.75268Z" fill="black"/>
</g>
<defs>
<clipPath id="clip0_258_461">
<rect width="20" height="20" fill="white"/>
</clipPath>
</defs>
</svg>
