<svg width="20" height="20" viewBox="0 0 20 20" fill="none" xmlns="http://www.w3.org/2000/svg">
<path d="M10.3083 1.79164L17.8083 4.79162C18.1 4.90828 18.3333 5.25828 18.3333 5.56661V8.33328C18.3333 8.79162 17.9583 9.16662 17.5 9.16662H2.5C2.04166 9.16662 1.66666 8.79162 1.66666 8.33328V5.56661C1.66666 5.25828 1.9 4.90828 2.19167 4.79162L9.69167 1.79164C9.85833 1.72497 10.1417 1.72497 10.3083 1.79164Z" stroke="black" stroke-width="1.5" stroke-miterlimit="10" stroke-linecap="round" stroke-linejoin="round"/>
<path d="M18.3333 18.3333H1.66666V15.8333C1.66666 15.375 2.04166 15 2.5 15H17.5C17.9583 15 18.3333 15.375 18.3333 15.8333V18.3333Z" stroke="black" stroke-width="1.5" stroke-miterlimit="10" stroke-linecap="round" stroke-linejoin="round"/>
<path d="M3.33334 15V9.16663" stroke="black" stroke-width="1.5" stroke-miterlimit="10" stroke-linecap="round" stroke-linejoin="round"/>
<path d="M6.66666 15V9.16663" stroke="black" stroke-width="1.5" stroke-miterlimit="10" stroke-linecap="round" stroke-linejoin="round"/>
<path d="M10 15V9.16663" stroke="black" stroke-width="1.5" stroke-miterlimit="10" stroke-linecap="round" stroke-linejoin="round"/>
<path d="M13.3333 15V9.16663" stroke="black" stroke-width="1.5" stroke-miterlimit="10" stroke-linecap="round" stroke-linejoin="round"/>
<path d="M16.6667 15V9.16663" stroke="black" stroke-width="1.5" stroke-miterlimit="10" stroke-linecap="round" stroke-linejoin="round"/>
<path d="M0.833336 18.3334H19.1667" stroke="black" stroke-width="1.5" stroke-miterlimit="10" stroke-linecap="round" stroke-linejoin="round"/>
<path d="M10 7.08337C10.6904 7.08337 11.25 6.52373 11.25 5.83337C11.25 5.14302 10.6904 4.58337 10 4.58337C9.30964 4.58337 8.75 5.14302 8.75 5.83337C8.75 6.52373 9.30964 7.08337 10 7.08337Z" stroke="black" stroke-width="1.5" stroke-miterlimit="10" stroke-linecap="round" stroke-linejoin="round"/>
</svg>
