<svg width="21" height="21" viewBox="0 0 21 21" fill="none" xmlns="http://www.w3.org/2000/svg">
<path d="M9.1875 17.7188H3.9375C3.57506 17.7188 3.28125 17.4249 3.28125 17.0625V3.9375C3.28125 3.57506 3.57506 3.28125 3.9375 3.28125H17.0625C17.4249 3.28125 17.7188 3.57506 17.7188 3.9375V10.9375" stroke="black" stroke-width="1.5" stroke-linecap="round" stroke-linejoin="round"/>
<path d="M14.4375 1.96875V4.59375" stroke="black" stroke-width="1.5" stroke-linecap="round" stroke-linejoin="round"/>
<path d="M6.5625 1.96875V4.59375" stroke="black" stroke-width="1.5" stroke-linecap="round" stroke-linejoin="round"/>
<path d="M3.28125 7.21875H17.7188" stroke="black" stroke-width="1.5" stroke-linecap="round" stroke-linejoin="round"/>
<path d="M14 20.125C16.8995 20.125 19.25 17.7745 19.25 14.875C19.25 11.9755 16.8995 9.625 14 9.625C11.1005 9.625 8.75 11.9755 8.75 14.875C8.75 17.7745 11.1005 20.125 14 20.125Z" stroke="black" stroke-width="1.5" stroke-linecap="round" stroke-linejoin="round"/>
<path fill-rule="evenodd" clip-rule="evenodd" d="M12.9823 13.0474C12.7024 13.0474 12.4178 13.2586 12.4178 13.5713C12.4178 13.8082 12.4788 13.8936 12.5094 13.926C12.5457 13.9645 12.6183 14.0125 12.8124 14.0702L15.2415 14.7759C15.5257 14.8602 15.8505 14.9924 16.0931 15.2511C16.341 15.5156 16.4419 15.8454 16.4419 16.2244C16.4419 17.049 15.6757 17.7558 14.6677 17.7558H13.1516C12.0506 17.7558 11.2 16.9851 11.2 16.0767C11.2 15.7984 11.4708 15.5729 11.8049 15.5729C12.1389 15.5729 12.4097 15.7984 12.4097 16.0767C12.4097 16.4713 12.7688 16.7483 13.1516 16.7483H14.6677C14.9501 16.7483 15.2323 16.5417 15.2323 16.2244C15.2323 15.9923 15.1719 15.9056 15.1396 15.8712C15.1021 15.8311 15.028 15.7822 14.8376 15.7256L12.4085 15.0199C12.1281 14.9367 11.8018 14.8069 11.558 14.5483C11.3084 14.2835 11.2081 13.9525 11.2081 13.5713C11.2081 12.7557 11.9718 12.0399 12.9823 12.0399H14.4984C15.5994 12.0399 16.45 12.8107 16.45 13.7191C16.45 13.9973 16.1792 14.2229 15.8452 14.2229C15.5111 14.2229 15.2403 13.9973 15.2403 13.7191C15.2403 13.3245 14.8812 13.0474 14.4984 13.0474H12.9823Z" fill="black"/>
<path fill-rule="evenodd" clip-rule="evenodd" d="M13.821 11.375C14.155 11.375 14.4258 11.6005 14.4258 11.8788V17.9238C14.4258 18.202 14.155 18.4275 13.821 18.4275C13.4869 18.4275 13.2161 18.202 13.2161 17.9238V11.8788C13.2161 11.6005 13.4869 11.375 13.821 11.375Z" fill="black"/>
</svg>
