<svg width="12" height="12" viewBox="0 0 12 12" fill="none" xmlns="http://www.w3.org/2000/svg">
<path d="M6.18751 10.1246H2.23438C2.13906 10.1246 2.04765 10.0868 1.98026 10.0194C1.91286 9.95198 1.875 9.86057 1.875 9.76526V5.81212C1.875 5.2458 1.98655 4.68502 2.20327 4.16181C2.41999 3.63859 2.73765 3.16318 3.1381 2.76273C3.53855 2.36228 4.01396 2.04463 4.53717 1.8279C5.06039 1.61118 5.62117 1.49963 6.18749 1.49963H6.1875C6.75383 1.49963 7.31461 1.61118 7.83782 1.8279C8.36104 2.04463 8.83645 2.36228 9.2369 2.76274C9.63735 3.16319 9.95501 3.6386 10.1717 4.16181C10.3885 4.68503 10.5 5.24581 10.5 5.81213V5.81214C10.5 6.95589 10.0456 8.05279 9.2369 8.86153C8.42815 9.67028 7.33125 10.1246 6.18751 10.1246Z" stroke="#EAEAEA" stroke-width="1.5" stroke-linecap="round" stroke-linejoin="round"/>
<path d="M4.68753 5.24963H7.50003" stroke="#EAEAEA" stroke-width="1.5" stroke-linecap="round" stroke-linejoin="round"/>
<path d="M4.68753 6.74963H7.50003" stroke="#EAEAEA" stroke-width="1.5" stroke-linecap="round" stroke-linejoin="round"/>
</svg>
