<svg width="13" height="12" viewBox="0 0 13 12" fill="none" xmlns="http://www.w3.org/2000/svg">
<path d="M6.76286 10.1246H2.73109C2.63388 10.1246 2.54065 10.0868 2.47192 10.0194C2.40318 9.95198 2.36456 9.86057 2.36456 9.76526V5.81212C2.36456 5.2458 2.47833 4.68502 2.69936 4.16181C2.9204 3.63859 3.24437 3.16318 3.65279 2.76273C4.06121 2.36228 4.54607 2.04463 5.0797 1.8279C5.61332 1.61118 6.18526 1.49963 6.76285 1.49963H6.76286C7.34045 1.49963 7.91238 1.61118 8.44601 1.8279C8.97963 2.04463 9.4645 2.36228 9.87292 2.76274C10.2813 3.16319 10.6053 3.6386 10.8263 4.16181C11.0474 4.68503 11.1611 5.24581 11.1611 5.81213V5.81214C11.1611 6.95589 10.6978 8.05279 9.87292 8.86153C9.04808 9.67028 7.92936 10.1246 6.76286 10.1246Z" stroke="#868686" stroke-width="1.5" stroke-linecap="round" stroke-linejoin="round"/>
<path d="M5.23303 5.24963H8.10148" stroke="#868686" stroke-width="1.5" stroke-linecap="round" stroke-linejoin="round"/>
<path d="M5.23303 6.74963H8.10148" stroke="#868686" stroke-width="1.5" stroke-linecap="round" stroke-linejoin="round"/>
</svg>
