<svg width="21" height="21" viewBox="0 0 21 21" fill="none" xmlns="http://www.w3.org/2000/svg">
<path d="M4.58047 15.8067C4.58047 15.8067 7.6013 15.1744 8.20547 13.2776C8.20547 13.2776 3.37213 11.3808 4.58047 4.42585C4.58047 4.42585 6.99713 7.58719 10.6221 8.21945V6.95515C10.6222 6.2288 10.8612 5.52462 11.299 4.961C11.7368 4.39738 12.3467 4.0087 13.0261 3.86029C13.7056 3.71188 14.4131 3.8128 15.0298 4.14608C15.6465 4.47936 16.1347 5.02468 16.4124 5.69035L19.0805 5.69038L16.6638 8.21945C16.6638 12.6453 13.643 17.0712 8.20547 17.0712C5.7888 17.0712 4.58047 15.8067 4.58047 15.8067Z" stroke="#606060" stroke-width="1.5" stroke-linecap="round" stroke-linejoin="round"/>
</svg>
