<svg width="20" height="21" viewBox="0 0 20 21" fill="none" xmlns="http://www.w3.org/2000/svg">
<path d="M15.886 3.16132H3.80271C3.46904 3.16132 3.19855 3.44439 3.19855 3.79358V16.4389C3.19855 16.7881 3.46904 17.0712 3.80271 17.0712H15.886C16.2197 17.0712 16.4902 16.7881 16.4902 16.4389V3.79358C16.4902 3.44439 16.2197 3.16132 15.886 3.16132Z" stroke="#606060" stroke-width="1.5" stroke-linecap="round" stroke-linejoin="round"/>
<path d="M9.24023 8.85181V13.9099" stroke="#606060" stroke-width="1.5" stroke-linecap="round" stroke-linejoin="round"/>
<path d="M6.82355 8.85181V13.9099" stroke="#606060" stroke-width="1.5" stroke-linecap="round" stroke-linejoin="round"/>
<path d="M9.24023 11.0647C9.24023 10.4778 9.46302 9.91497 9.85958 9.49996C10.2561 9.08495 10.794 8.85181 11.3548 8.85181C11.9156 8.85181 12.4535 9.08495 12.8501 9.49996C13.2466 9.91497 13.4694 10.4778 13.4694 11.0647V13.9099" stroke="#606060" stroke-width="1.5" stroke-linecap="round" stroke-linejoin="round"/>
<path d="M6.82355 7.27107C7.32406 7.27107 7.7298 6.84646 7.7298 6.32267C7.7298 5.79888 7.32406 5.37427 6.82355 5.37427C6.32304 5.37427 5.9173 5.79888 5.9173 6.32267C5.9173 6.84646 6.32304 7.27107 6.82355 7.27107Z" fill="#606060"/>
</svg>
