<svg width="21" height="21" viewBox="0 0 21 21" fill="none" xmlns="http://www.w3.org/2000/svg">
<path d="M4.27538 13.9887C3.37462 12.3997 3.05916 10.5211 3.38825 8.70581C3.71734 6.89053 4.66834 5.26342 6.06266 4.13C7.45699 2.99657 9.19872 2.43482 10.9608 2.55021C12.7229 2.66561 14.3841 3.45022 15.6326 4.75671C16.881 6.06319 17.6307 7.80169 17.741 9.64574C17.8513 11.4898 17.3145 13.3125 16.2315 14.7717C15.1484 16.2309 13.5936 17.2261 11.859 17.5705C10.1245 17.915 8.32938 17.5848 6.8109 16.6422L6.81092 16.6421L4.30691 17.3908C4.20331 17.4218 4.09368 17.4232 3.98938 17.3949C3.88508 17.3666 3.7899 17.3097 3.71372 17.23C3.63753 17.1502 3.5831 17.0506 3.55608 16.9415C3.52905 16.8323 3.53041 16.7176 3.56001 16.6092L4.27544 13.9887L4.27538 13.9887Z" stroke="#606060" stroke-width="1.5" stroke-linecap="round" stroke-linejoin="round"/>
<path d="M12.3322 14.5421C11.5374 14.5433 10.7501 14.3804 10.0156 14.0626C9.28101 13.7448 8.61359 13.2785 8.05155 12.6903C7.4895 12.1021 7.04389 11.4036 6.74024 10.6349C6.43658 9.86617 6.28086 9.0423 6.28199 8.21048C6.28379 7.62498 6.50742 7.06413 6.90384 6.65096C7.30026 6.23779 7.83708 6.00603 8.39657 6.00653V6.00653C8.48833 6.00653 8.57847 6.03192 8.65784 6.08012C8.73721 6.12832 8.80299 6.19763 8.84852 6.28101L9.73144 7.89798C9.78469 7.99549 9.81215 8.10609 9.81101 8.2184C9.80987 8.3307 9.78016 8.44066 9.72494 8.53697L9.01587 9.77372C9.38067 10.6209 10.0289 11.2993 10.8385 11.6811V11.6811L12.0203 10.939C12.1123 10.8813 12.2174 10.8502 12.3247 10.849C12.432 10.8478 12.5377 10.8765 12.6308 10.9323L14.176 11.8562C14.2556 11.9039 14.3219 11.9727 14.3679 12.0558C14.414 12.1388 14.4382 12.2332 14.4382 12.3292V12.3292C14.4366 12.914 14.2145 13.4746 13.8201 13.889C13.4258 14.3034 12.8911 14.5381 12.3322 14.5421V14.5421Z" stroke="#606060" stroke-width="1.5" stroke-linecap="round" stroke-linejoin="round"/>
</svg>
