<svg width="20" height="21" viewBox="0 0 20 21" fill="none" xmlns="http://www.w3.org/2000/svg">
<path d="M6.71242 10.6594L13.503 16.9131C13.5816 16.9855 13.6768 17.0352 13.7793 17.0575C13.8817 17.0798 13.988 17.0738 14.0876 17.0402C14.1872 17.0066 14.2768 16.9465 14.3475 16.8657C14.4182 16.785 14.4677 16.6864 14.4911 16.5797L17.3317 3.60773C17.3563 3.49557 17.3511 3.37853 17.3168 3.26921C17.2825 3.15989 17.2203 3.06244 17.137 2.98737C17.0537 2.91229 16.9524 2.86243 16.844 2.84316C16.7356 2.82389 16.6242 2.83594 16.5219 2.87801L2.584 8.60829C2.46252 8.65823 2.35977 8.74799 2.29111 8.86414C2.22245 8.98029 2.19158 9.11659 2.20311 9.25263C2.21464 9.38868 2.26796 9.51716 2.35508 9.61885C2.4422 9.72054 2.55845 9.78997 2.68642 9.81676L6.71242 10.6594Z" stroke="#606060" stroke-width="1.5" stroke-linecap="round" stroke-linejoin="round"/>
<path d="M6.7124 10.6594L16.9917 2.8902" stroke="#606060" stroke-width="1.5" stroke-linecap="round" stroke-linejoin="round"/>
<path d="M10.1038 13.7827L7.74378 16.2525C7.65929 16.3409 7.55163 16.4011 7.43444 16.4255C7.31724 16.4499 7.19576 16.4374 7.08537 16.3896C6.97497 16.3417 6.88061 16.2607 6.81422 16.1567C6.74784 16.0527 6.7124 15.9305 6.7124 15.8054V10.6594" stroke="#606060" stroke-width="1.5" stroke-linecap="round" stroke-linejoin="round"/>
</svg>
