<svg width="14" height="12" viewBox="0 0 14 12" fill="none" xmlns="http://www.w3.org/2000/svg">
<path d="M6.99868 6L4.09198 3.8625C4.04448 3.82757 4.00593 3.78228 3.97937 3.7302C3.95282 3.67813 3.939 3.62072 3.939 3.5625V1.875C3.939 1.77554 3.97929 1.68016 4.05102 1.60984C4.12274 1.53951 4.22002 1.5 4.32146 1.5H9.6759C9.77733 1.5 9.87461 1.53951 9.94634 1.60984C10.0181 1.68016 10.0584 1.77554 10.0584 1.875V3.54568C10.0584 3.60366 10.0446 3.66085 10.0183 3.71275C9.99196 3.76466 9.9537 3.80987 9.90653 3.84483L6.99868 6Z" stroke="#868686" stroke-width="1.5" stroke-linecap="round" stroke-linejoin="round"/>
<path d="M6.99868 6L4.09198 8.1375C4.04448 8.17243 4.00593 8.21772 3.97937 8.26979C3.95282 8.32187 3.939 8.37928 3.939 8.4375V10.125C3.939 10.2245 3.97929 10.3198 4.05102 10.3902C4.12274 10.4605 4.22002 10.5 4.32146 10.5H9.6759C9.77733 10.5 9.87461 10.4605 9.94634 10.3902C10.0181 10.3198 10.0584 10.2245 10.0584 10.125V8.45432C10.0584 8.39634 10.0446 8.33915 10.0183 8.28725C9.99196 8.23534 9.9537 8.19013 9.90653 8.15517L6.99868 6Z" stroke="#868686" stroke-width="1.5" stroke-linecap="round" stroke-linejoin="round"/>
</svg>
