<svg width="20" height="21" viewBox="0 0 20 21" fill="none" xmlns="http://www.w3.org/2000/svg">
<path fill-rule="evenodd" clip-rule="evenodd" d="M10 1.64535C5.25043 1.64535 1.39535 5.50043 1.39535 10.25C1.39535 14.9996 5.25043 18.8547 10 18.8547C14.7496 18.8547 18.6047 14.9996 18.6047 10.25C18.6047 9.86469 18.917 9.55233 19.3023 9.55233C19.6876 9.55233 20 9.86469 20 10.25C20 15.7702 15.5202 20.25 10 20.25C4.4798 20.25 0 15.7702 0 10.25C0 4.7298 4.4798 0.25 10 0.25C10.3853 0.25 10.6977 0.562359 10.6977 0.947674C10.6977 1.33299 10.3853 1.64535 10 1.64535Z" fill="#018D4F"/>
</svg>
