<svg width="20" height="20" viewBox="0 0 20 20" fill="none" xmlns="http://www.w3.org/2000/svg">
<path d="M13.75 15.625C13.75 16.1223 13.5525 16.5992 13.2008 16.9508C12.8492 17.3025 12.3723 17.5 11.875 17.5C11.3777 17.5 10.9008 17.3025 10.5492 16.9508C10.1975 16.5992 10 16.1223 10 15.625V10.625" stroke="black" stroke-width="1.5" stroke-linecap="round" stroke-linejoin="round"/>
<path d="M2.52613 10.625C2.43941 10.6248 2.35367 10.6067 2.27434 10.5716C2.19501 10.5366 2.12381 10.4855 2.06525 10.4216C2.00668 10.3576 1.96203 10.2822 1.93412 10.2001C1.9062 10.118 1.89563 10.031 1.90308 9.94458C2.07379 7.9146 3.00079 6.02281 4.50041 4.64401C6.00002 3.2652 7.96285 2.5 9.99999 2.5C12.0371 2.5 14 3.2652 15.4996 4.64401C16.9992 6.02281 17.9262 7.9146 18.0969 9.94458C18.1043 10.031 18.0938 10.118 18.0659 10.2001C18.0379 10.2822 17.9933 10.3576 17.9347 10.4216C17.8762 10.4855 17.805 10.5366 17.7256 10.5716C17.6463 10.6067 17.5606 10.6248 17.4739 10.625H2.52613Z" stroke="black" stroke-width="1.5" stroke-linecap="round" stroke-linejoin="round"/>
</svg>
