<svg width="20" height="21" viewBox="0 0 20 21" fill="none" xmlns="http://www.w3.org/2000/svg">
<path fill-rule="evenodd" clip-rule="evenodd" d="M6.90875 13.4496C6.90875 13.0643 7.22822 12.7519 7.6223 12.7519H12.3793C12.7734 12.7519 13.0928 13.0643 13.0928 13.4496C13.0928 13.835 12.7734 14.1473 12.3793 14.1473H7.6223C7.22822 14.1473 6.90875 13.835 6.90875 13.4496Z" fill="black"/>
<path fill-rule="evenodd" clip-rule="evenodd" d="M10.0008 10.4816C10.3949 10.4816 10.7144 10.794 10.7144 11.1793V15.8308C10.7144 16.2162 10.3949 16.5285 10.0008 16.5285C9.60673 16.5285 9.28726 16.2162 9.28726 15.8308V11.1793C9.28726 10.794 9.60673 10.4816 10.0008 10.4816Z" fill="black"/>
<path fill-rule="evenodd" clip-rule="evenodd" d="M7.80821 1.81122C7.19851 2.08012 6.62645 2.73719 6.02082 4.10692C6.01183 4.12726 6.00186 4.14716 5.99093 4.16656C5.99007 4.1689 5.98901 4.17181 5.98773 4.17542L5.9762 4.20883C5.96938 4.22883 5.96163 4.24853 5.95299 4.26785L5.89095 4.4065L5.85289 4.49955L4.74269 7.09231C4.94424 7.06978 5.14904 7.05817 5.35635 7.05817H7.59833L9.89492 1.8467C8.9372 1.57276 8.295 1.59653 7.80821 1.81122ZM7.22146 0.539178C8.34818 0.0422569 9.63782 0.22737 11.1104 0.778203C11.2917 0.846028 11.4369 0.983167 11.5126 1.15799C11.5882 1.33282 11.5878 1.53023 11.5113 1.70471L11.4827 1.76983L8.72313 8.032C8.61038 8.28787 8.35276 8.45362 8.06783 8.45362H5.35635C4.80792 8.45362 4.284 8.56394 3.80806 8.76114C3.54091 8.87183 3.23181 8.81332 3.0262 8.61314C2.8206 8.41295 2.75943 8.11096 2.87148 7.84926L4.53422 3.96576L4.57016 3.87791C4.57298 3.87102 4.57591 3.86417 4.57895 3.85737L4.6322 3.73835C4.64843 3.69095 4.67861 3.60798 4.72452 3.52248C5.36231 2.08894 6.11463 1.02733 7.22146 0.539178Z" fill="black"/>
<path fill-rule="evenodd" clip-rule="evenodd" d="M10.1996 1.15501C10.3458 0.821472 10.729 0.653184 11.0811 0.767937C11.1986 0.806255 11.3611 0.874834 11.4614 0.917185C11.4963 0.931922 11.5237 0.943483 11.539 0.949489L11.5508 0.954105L13.6517 1.81868C14.8522 2.30556 15.8026 2.85196 16.4107 3.582C16.5183 3.70845 16.6201 3.84232 16.7124 4.0053C16.809 4.15526 16.9005 4.32774 16.9615 4.52604C17.0027 4.62293 17.0354 4.71918 17.0597 4.80974C17.384 5.82167 17.1562 6.9633 16.6453 8.2028C16.5063 8.53975 16.1263 8.71609 15.7715 8.60816C15.4243 8.50256 15.041 8.4536 14.642 8.4536H8.06783C7.82773 8.4536 7.60372 8.33552 7.47174 8.13939C7.33977 7.94326 7.31751 7.69538 7.41253 7.47977L10.1716 1.21887L10.1996 1.15501ZM11.2327 2.33727L9.15228 7.05816H14.642C14.9353 7.05816 15.2337 7.07854 15.5305 7.12479C15.8154 6.27385 15.843 5.66847 15.6942 5.21571C15.6894 5.20109 15.6851 5.18632 15.6813 5.17142C15.672 5.13492 15.6567 5.08947 15.6359 5.04369C15.6206 5.01018 15.6081 4.97554 15.5984 4.9401C15.5855 4.89252 15.5579 4.8296 15.4974 4.73759C15.4874 4.72245 15.4781 4.70693 15.4694 4.69108C15.4328 4.62466 15.388 4.56171 15.3116 4.47206L15.3059 4.4654C14.9248 4.00672 14.2406 3.56809 13.1033 3.107L13.0999 3.1056L11.2327 2.33727Z" fill="black"/>
<path fill-rule="evenodd" clip-rule="evenodd" d="M3.81929 8.7613C2.4173 9.354 1.43823 10.7169 1.43823 12.2959V14.11C1.43823 14.2955 1.45412 14.4876 1.47981 14.6803C1.48177 14.695 1.48325 14.7097 1.48425 14.7245C1.57653 16.0909 1.98855 17.0454 2.6385 17.6809C3.28844 18.3164 4.26456 18.7193 5.66189 18.8095C5.67702 18.8105 5.69212 18.812 5.70716 18.8139C5.90415 18.839 6.10062 18.8545 6.29036 18.8545H13.7113C15.3668 18.8545 16.5139 18.4694 17.2643 17.8091C18.0082 17.1545 18.471 16.1334 18.5549 14.6315C18.5645 14.4432 18.5729 14.2752 18.5729 14.11V12.2959C18.5729 10.5584 17.3912 9.09212 15.7889 8.61026C15.4385 8.50938 15.0512 8.4538 14.6531 8.4538H5.3675C4.8227 8.4538 4.30812 8.56269 3.81929 8.7613ZM3.26638 7.47484C3.91803 7.20934 4.61991 7.05835 5.3675 7.05835H14.6531C15.1861 7.05835 15.7109 7.13264 16.1968 7.273L16.2037 7.27501L16.2037 7.27505C18.3862 7.92922 20 9.92274 20 12.2959V14.11C20 14.3136 19.9897 14.5144 19.9805 14.6955L19.9801 14.703L19.9799 14.7061C19.8828 16.4502 19.3277 17.8708 18.2189 18.8464C17.1165 19.8164 15.5759 20.25 13.7113 20.25H6.29036C6.0318 20.25 5.77956 20.2296 5.54529 20.2005C3.9273 20.0923 2.58998 19.6069 1.62939 18.6676C0.668798 17.7283 0.172379 16.4207 0.0617761 14.8386C0.0319442 14.6095 0.0111389 14.3628 0.0111389 14.11V12.2959C0.0111389 10.1366 1.35163 8.2818 3.25838 7.47815L3.26636 7.47479L3.26638 7.47484Z" fill="black"/>
<path fill-rule="evenodd" clip-rule="evenodd" d="M5.74747 3.78894C5.91409 3.9886 5.95459 4.2618 5.85282 4.49951L4.18788 8.38815C4.11652 8.55482 3.98182 8.68792 3.81213 8.75944C2.40801 9.35124 1.4271 10.7152 1.4271 12.2957C1.4271 12.6811 1.10763 12.9935 0.713548 12.9935C0.319466 12.9935 0 12.6811 0 12.2957V9.56997C0 6.58913 2.16847 4.10193 5.05669 3.5455C5.31526 3.49568 5.58086 3.58928 5.74747 3.78894ZM1.51958 8.6425C1.94026 8.21969 2.43305 7.86589 2.97814 7.60016L3.90848 5.42727C2.69065 6.09468 1.79898 7.2611 1.51958 8.6425Z" fill="black"/>
<path fill-rule="evenodd" clip-rule="evenodd" d="M15.8043 4.26336C16.0241 4.05121 16.3585 4.00137 16.6329 4.13986C18.6346 5.15012 19.997 7.21904 19.997 9.56951V12.2953C19.997 12.6806 19.6776 12.993 19.2835 12.993C18.8894 12.993 18.5699 12.6806 18.5699 12.2953C18.5699 10.5629 17.3936 9.09051 15.7866 8.61909C15.5948 8.56282 15.436 8.43031 15.349 8.25391C15.262 8.07752 15.2548 7.8735 15.3291 7.69167C15.8015 6.53704 15.8776 5.76683 15.7067 5.19863C15.7022 5.18359 15.6982 5.16841 15.6947 5.15311C15.686 5.1147 15.6749 5.0866 15.6674 5.07191C15.5293 4.80182 15.5845 4.47551 15.8043 4.26336ZM18.4758 8.63723C18.2887 7.72261 17.8323 6.90001 17.1922 6.25939C17.1482 6.6706 17.0478 7.09852 16.901 7.54425C17.4926 7.81291 18.0255 8.18526 18.4758 8.63723Z" fill="black"/>
</svg>
